<svg width="449" height="106" viewBox="0 0 449 106" fill="none" xmlns="http://www.w3.org/2000/svg">
<path fill-rule="evenodd" clip-rule="evenodd" d="M448.5 0L437.073 7.21604C432.829 9.89609 428.868 12.9981 425.25 16.474C421.632 12.9981 417.671 9.8961 413.427 7.21605L402 0L409.216 11.4273C411.896 15.6714 414.998 19.6323 418.474 23.25C414.998 26.8677 411.896 30.8286 409.216 35.0727L402 46.5L413.427 39.284C417.671 36.6039 421.632 33.5019 425.25 30.026C428.868 33.5019 432.829 36.6039 437.073 39.284L448.5 46.5L441.284 35.0727C438.604 30.8286 435.502 26.8677 432.026 23.25C435.502 19.6323 438.604 15.6714 441.284 11.4273L448.5 0ZM77.224 64.5248C77.224 87.3106 95.6773 106.085 118.303 105.764C132.744 105.764 146.063 99.3453 153.283 85.0641L140.126 77.8432C135.472 86.3478 127.609 90.8407 118.303 90.8407C104.503 90.8407 93.1099 78.9665 93.1099 64.5248C93.1099 50.2436 104.503 38.5298 118.303 38.5298C127.609 38.5298 135.472 43.0227 140.126 51.5273L153.283 44.146C146.063 30.0252 132.744 23.4463 118.303 23.4463C95.6773 23.2858 77.224 41.8995 77.224 64.5248ZM199.853 64.5249C199.853 87.3107 218.146 105.924 241.894 105.924C265.482 105.924 283.615 87.3107 283.615 64.5249C283.615 42.0601 265.643 23.4464 241.894 23.4464C218.306 23.4464 199.853 41.8997 199.853 64.5249ZM267.729 64.6854C267.729 78.9666 256.496 90.8409 241.894 90.8409C227.132 90.8409 215.739 78.9666 215.739 64.6854C215.739 50.2437 227.132 38.3695 241.894 38.3695C256.496 38.3695 267.729 50.2437 267.729 64.6854ZM314.835 65.9691C314.835 51.367 322.537 38.6904 337.941 38.6904C353.667 38.6904 361.69 51.367 361.69 66.1296V103.999H377.576V64.204C377.576 41.4183 363.616 23.4464 337.941 23.4464C312.588 23.4464 298.949 41.4183 298.949 64.3645V103.999H314.835V65.9691ZM168.679 25.3719H184.565V103.999H168.679V25.3719ZM31.9321 105.764C17.33 105.764 6.0976 99.9872 0 88.2734L12.1952 81.5339C16.2068 89.3966 22.6253 92.285 31.2903 92.285C40.2762 92.285 47.1761 88.5943 47.1761 81.6944C47.1761 74.6536 38.9934 72.8836 29.5995 70.8516C16.9421 68.1136 2.08602 64.9 2.08602 47.6762C2.08602 33.8764 14.2812 23.7673 31.4508 23.7673C46.0529 23.7673 56.0016 30.5067 60.976 39.6531L48.7808 46.553C45.411 39.6531 38.9925 37.2461 31.7717 37.2461C24.3904 37.2461 17.9719 41.0973 17.9719 47.3553C17.9719 54.1542 26.0666 55.9694 35.3966 58.0617C48.0867 60.9075 63.062 64.2657 63.062 81.3735C63.062 96.2965 48.6203 105.764 31.9321 105.764Z" fill="black"/>
</svg>
